<?xml version='1.0' encoding='utf-8'?>
<svg version="1.1" xmlns="http://www.w3.org/2000/svg" width="654" height="474" viewBox="0 0 654 474"><g transform="translate(0,474) scale(1,-1)"><path d="M0 0 C3.92199114 0.58238383 6.08042146 2.47028389 9.0625 5 C10.03960937 5.81984375 11.01671875 6.6396875 12.0234375 7.484375 C13.00570313 8.31453125 13.98796875 9.1446875 15 10 C16.72616236 11.42032578 18.45530818 12.83703386 20.1875 14.25 C21.02982178 14.97687012 21.87214355 15.70374023 22.73999023 16.45263672 C25.04329096 18.35649897 27.37656127 19.80012879 30.00170898 21.22216797 C35.90577817 24.71029441 40.88789593 28.32996694 42.94650269 35.12353516 C44.23342926 42.93730494 44.20611537 50.75648561 43.97607422 58.64599609 C43.87377696 62.16660824 43.906569 65.67078626 43.97708511 69.19163132 C44.36847845 92.76218387 44.36847845 92.76218387 37.07644653 101.2414856 C34.72080105 103.57119323 32.27795739 105.68189365 29.64544678 107.6918335 C27.30815388 109.55003294 25.42626249 111.72828503 23.5 114 C19.7265588 118.22400134 15.87166228 122.36633784 12 126.5 C7.36553314 131.44875123 2.78131581 136.43401836 -1.73828125 141.48828125 C-6.95096414 147.27715016 -12.26920323 152.97055283 -17.56152344 158.68652344 C-25.01467724 166.73838244 -25.01467724 166.73838244 -32.375 174.875 C-36.76589291 179.77590588 -41.23682784 184.60152506 -45.7746582 189.36669922 C-48.5536066 192.29809835 -51.22791901 195.21665741 -53.6640625 198.44140625 C-54.45554688 199.45074219 -55.24703125 200.46007812 -56.0625 201.5 C-57.03896484 202.84578125 -57.03896484 202.84578125 -58.03515625 204.21875 C-63.14456381 207.28843359 -68.33390768 206.15938514 -74 205 C-78.05813422 203.60099127 -81.76905867 201.74828032 -85.5625 199.75 C-87.7475933 198.65014645 -89.93383642 197.55257492 -92.12109375 196.45703125 C-93.24628418 195.88678223 -94.37147461 195.3165332 -95.53076172 194.72900391 C-101.33564678 191.83595704 -107.23216562 189.14552341 -113.125 186.4375 C-115.45734838 185.35354669 -117.78938214 184.26891615 -120.12109375 183.18359375 C-124.68417152 181.06389133 -129.26060196 178.97740281 -133.84765625 176.91015625 C-135.96115614 175.94058062 -138.07444787 174.97055107 -140.1875 174 C-141.16799316 173.56743896 -142.14848633 173.13487793 -143.15869141 172.68920898 C-144.04862793 172.27614502 -144.93856445 171.86308105 -145.85546875 171.4375 C-146.63559326 171.08558594 -147.41571777 170.73367187 -148.21948242 170.37109375 C-150 169 -150 169 -150.8215332 166.91015625 C-151.06937998 162.86866028 -150.56642054 158.99980042 -150 155 C-149.44448959 154.7878183 -148.88897919 154.5756366 -148.31663513 154.35702515 C-142.45835528 152.1191414 -136.60071052 149.87960117 -130.7434082 147.63916016 C-128.56648257 146.8067164 -126.38940311 145.97467475 -124.2121582 145.14306641 C-113.10336648 140.89971733 -102.00584128 136.63958196 -90.97631836 132.19384766 C-87.35652816 130.74189342 -83.71873315 129.35745231 -80.0625 128 C-78.70961904 127.49613772 -77.35675492 126.99223022 -76.00390625 126.48828125 C-75.00254639 126.11630615 -75.00254639 126.11630615 -73.98095703 125.73681641 C-70.81813036 124.56040392 -67.65919676 123.37361565 -64.5 122.1875 C-59.79894654 120.4237213 -55.09714285 118.66196428 -50.39453125 116.90234375 C-40.73521551 113.28667893 -31.0783821 109.66458222 -21.4375 106 C-20.6014624 105.68240723 -19.7654248 105.36481445 -18.90405273 105.03759766 C-14.15058644 103.22446191 -9.41228885 101.37684211 -4.68359375 99.5 C-3.63179932 99.08363281 -2.58000488 98.66726562 -1.49633789 98.23828125 C0.5466755 97.4277874 2.58793421 96.612853 4.62719727 95.79296875 C5.54686279 95.42816406 6.46652832 95.06335938 7.4140625 94.6875 C8.2282666 94.36136719 9.0424707 94.03523438 9.88134766 93.69921875 C12 93 12 93 15 93 C14.67 88.71 14.34 84.42 14 80 C12.88149658 80.25354248 11.76299316 80.50708496 10.6105957 80.76831055 C-12.43774266 85.99222619 -35.48802395 91.20754266 -58.53981781 96.41618729 C-60.52031742 96.86369082 -62.50081158 97.31121849 -64.48130035 97.75876999 C-75.64906667 100.28240704 -86.81735577 102.80369603 -97.98681641 105.31982422 C-101.97431579 106.21828281 -105.96177848 107.11690408 -109.94921875 108.015625 C-110.91895378 108.2341576 -111.88868881 108.4526902 -112.88780975 108.677845 C-123.51097672 111.07257404 -134.13093151 113.47962877 -144.73995972 115.93629456 C-149.33821052 117.00088658 -153.93825998 118.05757245 -158.53845215 119.11373901 C-161.44490039 119.78532648 -164.34789353 120.47053534 -167.25097656 121.15649414 C-188.91700949 126.18334403 -188.91700949 126.18334403 -198 122 C-199.87617493 120.4778595 -199.87617493 120.4778595 -201.65356445 118.67114258 C-202.32809158 117.99316116 -203.00261871 117.31517975 -203.69758606 116.61665344 C-204.41226547 115.88335312 -205.12694489 115.1500528 -205.86328125 114.39453125 C-206.6140947 113.63710129 -207.36490814 112.87967133 -208.13847351 112.09928894 C-210.53702637 109.67736137 -212.92521119 107.24552692 -215.3125 104.8125 C-217.69072467 102.39902807 -220.07112877 99.98776654 -222.45439148 97.57926941 C-223.93476526 96.0821412 -225.41202856 94.58192837 -226.88557434 93.07807922 C-230.8248632 89.08258731 -234.86704822 85.29567097 -239.11830139 81.63432312 C-243.69223087 77.66170037 -248.01102995 73.41128951 -252.33959961 69.17529297 C-253.49651024 68.05035025 -254.66139068 66.93355095 -255.83374023 65.82470703 C-257.54537973 64.20410461 -259.22951566 62.55890432 -260.91015625 60.90625 C-261.70052025 60.17311584 -261.70052025 60.17311584 -262.5068512 59.4251709 C-265.00919951 56.9089954 -265.9807555 55.45956581 -266.13061523 51.88085938 C-264.54347662 46.43297439 -262.18244949 41.23787877 -260 36 C-167.27 36 -74.54 36 21 36 C11.18413944 20.12609994 11.18413944 20.12609994 1.29296875 4.30078125 C0 2 0 2 0 0 Z " fill="#808080" transform="translate(272,2)" />
<path d="M0 0 C-0.56211216 3.63743015 -1.48048289 6.17386595 -3.4765625 9.2578125 C-3.98316406 10.04929687 -4.48976563 10.84078125 -5.01171875 11.65625 C-5.54410156 12.4709375 -6.07648438 13.285625 -6.625 14.125 C-7.38876953 15.31222656 -7.38876953 15.31222656 -8.16796875 16.5234375 C-9.77381639 19.0187396 -11.38701537 21.50930536 -13 24 C-15.31 27.63 -17.62 31.26 -20 35 C72.4 35.33 164.8 35.66 260 36 C267 50 267 50 267 55 C265.73147583 56.43888855 265.73147583 56.43888855 263.85595703 57.89135742 C259.90396887 61.1585341 256.27827876 64.62696535 252.67919922 68.27075195 C252.09840166 68.85750293 251.5176041 69.4442539 250.91920662 70.04878521 C249.68718919 71.29523222 248.45607829 72.54257582 247.22579575 73.79073524 C245.26956832 75.77388373 243.30875426 77.75238722 241.34646606 79.72953796 C235.77301625 85.34547867 230.20248462 90.96422034 224.64794922 96.59887695 C221.23683329 100.05852665 217.81601831 103.50832272 214.38867569 106.95189476 C213.0892794 108.26117309 211.7935437 109.57409519 210.50161362 110.89074135 C208.69755848 112.72857278 206.88140151 114.55358662 205.06201172 116.3762207 C204.53510742 116.91907715 204.00820313 117.46193359 203.46533203 118.02124023 C198.59905293 122.84818925 194.55094229 124.0798277 187.84979248 124.26977539 C181.84096376 124.14882826 176.24084503 123.04114009 170.40332031 121.68359375 C169.29530972 121.43591122 168.18729914 121.18822868 167.04571247 120.93304062 C163.38724354 120.11231463 159.7327915 119.27498111 156.078125 118.4375 C153.48191023 117.85161007 150.88550039 117.2666621 148.2888031 116.68292236 C142.78620437 115.44403127 137.28555583 114.19679294 131.78622437 112.94348145 C123.95952049 111.15977118 116.12993299 109.38901276 108.29949176 107.62179041 C96.34903798 104.92451548 84.40058378 102.21851799 72.45361328 99.50585938 C59.28349009 96.51561199 46.10999297 93.54059402 32.93359375 90.578125 C31.20828228 90.1901457 29.482971 89.80216558 27.75765991 89.41418457 C25.33350273 88.86907857 22.90933992 88.3239977 20.48515511 87.77901459 C8.98828748 85.19406309 -2.50585558 82.59702924 -14 80 C-14 83.96 -14 87.92 -14 92 C0.93733814 97.94870849 15.91372324 103.75254011 31 109.3125 C43.27749537 113.83807399 55.50085962 118.48511801 67.6875 123.25 C78.58106546 127.50923937 89.48652799 131.72225486 100.44946289 135.80078125 C108.97406614 138.97549183 117.45898567 142.24990907 125.94189453 145.53417969 C132.80306568 148.1820563 139.68629569 150.71617875 146.65625 153.0625 C149 154 149 154 151 156 C151.1953125 159.0390625 151.1953125 159.0390625 151.125 162.625 C151.10695313 163.81351563 151.08890625 165.00203125 151.0703125 166.2265625 C151.04710937 167.14179688 151.02390625 168.05703125 151 169 C112.36473348 187.40874008 112.36473348 187.40874008 95.0625 195.4375 C93.95938477 195.94949951 92.85626953 196.46149902 91.71972656 196.98901367 C73.16903768 205.57240639 73.16903768 205.57240639 69 206 C67.7625 206.226875 66.525 206.45375 65.25 206.6875 C62.33389502 206.62245677 61.23275412 206.19590887 58.9765625 204.296875 C57.04514389 202.12851656 55.20129759 199.90740236 53.37792969 197.64794922 C50.72367723 194.47356862 47.84223962 191.50526934 45 188.5 C40.41137602 183.60615546 35.88256051 178.66811083 31.4140625 173.6640625 C27.70520073 169.57111148 23.92170549 165.54804533 20.13476562 161.52734375 C17.20570629 158.40703999 14.3301825 155.25449445 11.5234375 152.0234375 C8.0293573 148.00451632 4.40811402 144.11939915 0.75 140.25 C-17.25156042 121.12584784 -17.25156042 121.12584784 -24.34033203 112.80810547 C-26.37065699 110.66446698 -28.13705857 109.08943258 -30.45874023 107.34594727 C-37.21730684 101.87939051 -41.12915833 96.73167568 -42.36254883 87.9597168 C-42.94613147 81.01193577 -42.97965881 74.09593491 -42.82519531 67.12890625 C-42.74503257 63.46739138 -42.79284484 59.82002181 -42.87339115 56.15898418 C-43.30913873 32.86050187 -43.30913873 32.86050187 -38.07397461 26.82543945 C-35.22965795 24.31279948 -32.1424872 22.52700022 -28.73370361 20.88494873 C-26.24557717 19.61491369 -24.2588297 17.90308263 -22.16015625 16.07421875 C-21.46986328 15.50509766 -20.77957031 14.93597656 -20.06835938 14.34960938 C-19.40642578 13.80111328 -18.74449219 13.25261719 -18.0625 12.6875 C-17.37349609 12.11966797 -16.68449219 11.55183594 -15.97460938 10.96679688 C-15.29333984 10.40412109 -14.61207031 9.84144531 -13.91015625 9.26171875 C-13.25805176 8.72337402 -12.60594727 8.1850293 -11.93408203 7.63037109 C-10.62083844 6.52334753 -9.32526699 5.3950844 -8.04638672 4.24853516 C-7.43166504 3.69858887 -6.81694336 3.14864258 -6.18359375 2.58203125 C-5.37039673 1.83723511 -5.37039673 1.83723511 -4.54077148 1.07739258 C-3 0 -3 0 0 0 Z " fill="#808080" transform="translate(380,2)" />
<path d="M0 0 C2.91696199 1.29881612 4.7864651 2.58790405 6.84765625 5.01953125 C7.36489258 5.62313477 7.88212891 6.22673828 8.41503906 6.84863281 C9.23053223 7.82074707 9.23053223 7.82074707 10.0625 8.8125 C10.63323242 9.48249023 11.20396484 10.15248047 11.79199219 10.84277344 C13.53387151 12.89027956 15.26694336 14.94502572 17 17 C17.99271667 18.16602306 18.98616006 19.33142796 19.98046875 20.49609375 C24.16830475 25.41047297 28.30714842 30.36044841 32.375 35.375 C38.08818529 42.38940898 44.05403533 49.18323043 50 56 C71.70811688 80.88733766 71.70811688 80.88733766 74 86 C74.66 86 75.32 86 76 86 C75.505 87.98 75.505 87.98 75 90 C69.48426961 89.66473011 66.01092844 86.24367413 61.875 82.9375 C60.34055125 81.73737611 58.80539646 80.53815438 57.26953125 79.33984375 C56.53041504 78.75960449 55.79129883 78.17936523 55.02978516 77.58154297 C50.77518712 74.26649773 46.38204513 71.14314232 42 68 C39.10259408 65.9188463 36.20698137 63.83521918 33.3125 61.75 C32.54728027 61.19908691 31.78206055 60.64817383 30.99365234 60.08056641 C25.00607542 55.75711168 19.08670274 51.3484858 13.21411133 46.87011719 C9.90946923 44.3646142 6.61506758 42.05198122 3 40 C3.57543376 44.04436068 4.46216881 47.61358969 5.94140625 51.41796875 C6.35229492 52.48611816 6.76318359 53.55426758 7.18652344 54.65478516 C7.6405957 55.82058105 8.09466797 56.98637695 8.5625 58.1875 C9.56178423 60.78133011 10.5562697 63.37699307 11.55078125 65.97265625 C11.81941986 66.67243591 12.08805847 67.37221558 12.36483765 68.09320068 C16.06311164 77.74422997 19.65101501 87.43662473 23.25 97.125 C23.91736177 98.91952885 24.58476017 100.71404409 25.25219727 102.50854492 C26.53738405 105.96465722 27.81949208 109.42188994 29.09960938 112.87988281 C30.40293582 116.39886422 31.71846924 119.91300382 33.04101562 123.42480469 C33.68882847 125.15558908 34.3366159 126.88638299 34.984375 128.6171875 C35.44037079 129.81808517 35.44037079 129.81808517 35.90557861 131.04324341 C38 136.66112989 38 136.66112989 38 140 C37.01 140.33 36.02 140.66 35 141 C27.10584995 130.17257845 19.34862339 119.26051431 11.734375 108.23413086 C8.46165846 103.50283014 5.15052936 98.80650658 1.76098633 94.15795898 C1.05299393 93.18640366 0.34500153 92.21484833 -0.38444519 91.21385193 C-0.91757828 90.48328079 -1.45071136 89.75270966 -2 89 C-1.99777939 89.87169327 -1.99555878 90.74338654 -1.99327087 91.64149475 C-1.94185033 112.91079848 -1.93489865 134.17971843 -1.97665405 155.4490509 C-1.99578939 165.73505279 -2.00020546 176.02065746 -1.96923828 186.30664062 C-1.94226635 195.27824348 -1.94365763 204.24933158 -1.97825909 213.22091579 C-1.99559109 217.96580617 -1.99929672 222.70977544 -1.96896362 227.45462036 C-1.94078152 231.93339267 -1.95091593 236.41054317 -1.98873711 240.88922882 C-1.99607232 242.5208632 -1.99015925 244.15262813 -1.96898079 245.78414154 C-1.82066023 258.10599149 -4.84019478 266.39572196 -11 277 C-11.79263878 278.5712826 -12.57469563 280.14816023 -13.3293457 281.73803711 C-13.63939041 282.37426498 -13.94943512 283.01049286 -14.26887512 283.66600037 C-14.71779366 284.58736534 -14.71779366 284.58736534 -15.17578125 285.52734375 C-16.20738778 287.62688913 -17.24075857 289.7255576 -18.2746582 291.82397461 C-18.97891917 293.25817531 -19.67965142 294.69411312 -20.37719727 296.1315918 C-21.40496744 298.2473669 -22.44525394 300.35655733 -23.48828125 302.46484375 C-23.95238152 303.43175392 -23.95238152 303.43175392 -24.42585754 304.41819763 C-25.20888284 305.98525307 -26.09709003 307.49881881 -27 309 C-27.99 309.33 -28.98 309.66 -30 310 C-30 221.56 -30 133.12 -30 42 C-25.38 39.36 -20.76 36.72 -16 34 C-7.15026017 26.97639696 -2.27459395 16.66921168 -0.5625 5.625 C-0.35023977 3.75264137 -0.15287189 1.87814042 0 0 Z " fill="#808080" transform="translate(369,160)" />
<path d="M0 0 C0.66 0 1.32 0 2 0 C2.21914063 1.11117187 2.43828125 2.22234375 2.6640625 3.3671875 C5.72490523 18.03943201 10.71833801 27.26314867 22.7421875 36.5703125 C25.66299372 38.50359925 25.66299372 38.50359925 32 41 C32.33 129.77 32.66 218.54 33 310 C32.01 310 31.02 310 30 310 C19.5 289 19.5 289 9 268 C8.4893399 267.11335663 7.97867981 266.22671326 7.45254517 265.3132019 C5.78107278 261.5006351 5.61625282 258.82528298 5.60127258 254.67276001 C5.59462576 253.95709535 5.58797893 253.24143069 5.58113068 252.50407922 C5.56255221 250.11796999 5.56510241 247.73236448 5.56762695 245.34619141 C5.55860663 243.63103531 5.54827874 241.91588566 5.53674316 240.20074463 C5.50917883 235.55247078 5.4998894 230.90431928 5.49388909 226.25597429 C5.48450398 221.39524016 5.45830045 216.53459736 5.43388367 211.67391968 C5.39021881 202.47306931 5.36167174 193.27223666 5.33856028 184.07131422 C5.31150857 173.59490104 5.26759702 163.11857975 5.22227156 152.64223218 C5.12942546 131.09487088 5.05774453 109.54748208 5 88 C4.60862854 88.55938263 4.21725708 89.11876526 3.81402588 89.69509888 C2.00636401 92.2786003 0.19849552 94.86195708 -1.609375 97.4453125 C-2.22474121 98.32485596 -2.84010742 99.20439941 -3.47412109 100.1105957 C-8.82424059 107.75513404 -14.19319943 115.38602202 -19.58740234 122.99951172 C-21.01946193 125.02756153 -22.44200546 127.06203826 -23.86328125 129.09765625 C-24.76290097 130.37768842 -25.66263503 131.65764023 -26.5625 132.9375 C-27.17109863 133.81607666 -27.17109863 133.81607666 -27.79199219 134.71240234 C-29.72095891 137.44360289 -31.17638043 139.11758696 -34 141 C-34.66 140.01 -35.32 139.02 -36 138 C-35.23657227 135.13110352 -35.23657227 135.13110352 -33.81640625 131.62890625 C-33.56382553 130.99250717 -33.31124481 130.35610809 -33.05101013 129.70042419 C-32.23430964 127.64904261 -31.39944041 125.60569739 -30.5625 123.5625 C-29.49491891 120.9205064 -28.43529558 118.27539296 -27.37890625 115.62890625 C-26.96769279 114.60208488 -26.96769279 114.60208488 -26.548172 113.55451965 C-24.08443107 107.34275253 -21.88492529 101.0504761 -19.70431519 94.73483276 C-16.07256277 84.25076451 -12.1109768 73.89202809 -8.17504883 63.51928711 C-7.19120894 60.92388274 -6.21072629 58.32722782 -5.23046875 55.73046875 C-4.93464401 54.95438766 -4.63881927 54.17830658 -4.33403015 53.37870789 C-2.66781262 48.96205104 -1.23123528 44.55771738 0 40 C-6.61815319 44.00537527 -12.86958735 48.33417575 -18.95654297 53.09960938 C-22.83841093 56.13057915 -26.78951848 59.03441237 -30.8125 61.875 C-35.94061288 65.49961245 -40.98789457 69.21665325 -46 73 C-51.22380389 76.93195675 -56.45808745 80.8474999 -61.75 84.6875 C-62.32234375 85.10966797 -62.8946875 85.53183594 -63.484375 85.96679688 C-66.25236229 87.95961465 -68.58372601 89.5107763 -72 90 C-72.7421875 88.28515625 -72.7421875 88.28515625 -73 86 C-71.4453125 83.80859375 -71.4453125 83.80859375 -69.125 81.4375 C-65.76096738 77.89120555 -62.56057561 74.31220107 -59.5 70.5 C-56.5918662 66.9052235 -53.61458668 63.41739372 -50.5 60 C-47.47717579 56.68010514 -44.57487839 53.30235888 -41.75 49.8125 C-37.58915231 44.67305572 -33.28265511 39.67673848 -28.94067383 34.69091797 C-24.95938486 30.11622764 -21.02246125 25.5072609 -17.11621094 20.8684082 C-14.65465971 17.94768647 -12.17871928 15.04056394 -9.68359375 12.1484375 C-8.85613647 11.18852905 -8.85613647 11.18852905 -8.01196289 10.20922852 C-6.94127175 8.96863202 -5.86890935 7.72947543 -4.79467773 6.49194336 C-2.11539299 3.4419497 -2.11539299 3.4419497 0 0 Z " fill="#808080" transform="translate(281,160)" />
<path d="M0 0 C0 0.99 0 1.98 0 3 C-139.59 3.495 -139.59 3.495 -282 4 C-282.99 5.98 -283.98 7.96 -285 10 C-285.33 9.34 -285.66 8.68 -286 8 C-285.06421005 5.64018187 -284.06652192 3.30368736 -283 1 C-247.23630438 0.87256429 -211.47260864 0.74516587 -175.70891271 0.61781773 C-171.49051212 0.60279673 -167.27211153 0.58777541 -163.05371094 0.57275391 C-162.21387281 0.56976329 -161.37403468 0.56677268 -160.50874691 0.56369144 C-146.89482652 0.51521232 -133.28090621 0.46670807 -119.66698594 0.41819459 C-105.70680319 0.36844776 -91.74662033 0.31872779 -77.78643739 0.26903296 C-69.1662962 0.23834651 -60.54615508 0.2076389 -51.92601405 0.17690456 C-46.02177326 0.15585552 -40.11753238 0.13483247 -34.21329142 0.11383021 C-30.80249479 0.10169672 -27.3916982 0.08955144 -23.98090172 0.07737541 C-20.29005317 0.06420559 -16.59920446 0.05107903 -12.90835571 0.03796387 C-11.82082492 0.03407292 -10.73329414 0.03018197 -9.61280787 0.02617311 C-8.62999162 0.02268972 -7.64717536 0.01920632 -6.6345768 0.01561737 C-5.78172494 0.01257961 -4.92887307 0.00954185 -4.05017722 0.00641203 C-2.70012306 0.00218967 -1.35006076 0 0 0 Z " fill="#808080" transform="translate(295,37)" />
<path d="M0 0 C93.06 0.33 186.12 0.66 282 1 C282.99 2.98 283.98 4.96 285 7 C284.67 7.66 284.34 8.32 284 9 C282 6 282 6 282 3 C188.61 3 95.22 3 -1 3 C-0.67 2.01 -0.34 1.02 0 0 Z " fill="#808080" transform="translate(358,37)" />
<path d="M0 0 C0.66 0.33 1.32 0.66 2 1 C1.99962028 1.55574058 1.99924056 2.11148116 1.99884933 2.68406236 C1.97649017 35.59330905 1.95932302 68.50255385 1.94893467 101.41180643 C1.94768391 105.35982409 1.94638959 109.30784174 1.94506836 113.25585938 C1.94480605 114.04186644 1.94454374 114.8278735 1.94427348 115.63769896 C1.93991755 128.3786406 1.93203042 141.11957774 1.9228472 153.86051671 C1.91350853 166.92572946 1.90794393 179.99093985 1.90591151 193.0561558 C1.90453673 201.12353207 1.90018855 209.19089565 1.89208353 217.25826801 C1.88619207 223.43558279 1.88554158 229.6128878 1.88689232 235.790205 C1.88661597 238.33075603 1.88461063 240.87130752 1.88079453 243.4118557 C1.87585791 246.86625319 1.87700162 250.32059526 1.87974548 253.7749939 C1.87683264 254.79248762 1.8739198 255.80998133 1.87091869 256.8583082 C1.87290974 257.77842333 1.87490079 258.69853846 1.87695217 259.64653587 C1.87657245 260.44470801 1.87619273 261.24288014 1.8758015 262.06523931 C1.87936889 264.08290177 1.87936889 264.08290177 3 266 C2.34 266.99 1.68 267.98 1 269 C0.34 269 -0.32 269 -1 269 C-1.02286536 234.87540705 -1.04049771 200.75081584 -1.05106533 166.62621689 C-1.05231611 162.60180409 -1.05361042 158.5773913 -1.05493164 154.55297852 C-1.05519395 153.75175607 -1.05545626 152.95053362 -1.05572652 152.1250317 C-1.06008342 139.13445328 -1.06797107 126.14387926 -1.0771528 113.15330345 C-1.08648879 99.83384274 -1.09205549 86.51438433 -1.09408849 73.19492048 C-1.09546384 64.96938767 -1.09981503 56.7438673 -1.10791647 48.51833832 C-1.11318325 42.88555659 -1.11480445 37.25278134 -1.11350138 31.61999733 C-1.11285789 28.36526039 -1.11441515 25.11055001 -1.11920547 21.85581589 C-1.12413542 18.3353831 -1.12300088 14.81500481 -1.12025452 11.29457092 C-1.12316736 10.25470962 -1.1260802 9.21484832 -1.12908131 8.14347607 C-1.12709026 7.20793501 -1.12509921 6.27239394 -1.12304783 5.30850315 C-1.12361741 4.08789215 -1.12361741 4.08789215 -1.1241985 2.84262234 C-1 1 -1 1 0 0 Z " fill="#808080" transform="translate(340,201)" />
<path d="M0 0 C0.66 0 1.32 0 2 0 C2.00634791 1.37686368 2.00634791 1.37686368 2.01282406 2.78154278 C2.11608702 25.10673914 2.22471829 47.43190374 2.33933926 69.75704479 C2.39463913 80.55326952 2.44811584 91.34949755 2.49731445 102.14575195 C2.5401959 111.5547412 2.58648392 120.96370643 2.63687855 130.37265855 C2.66344754 135.35552449 2.68829985 140.33838577 2.70907402 145.32127953 C2.72867728 150.01041621 2.75283212 154.69950733 2.78049088 159.38860321 C2.78984176 161.11031834 2.79752407 162.83204345 2.80341911 164.55377388 C2.81171368 166.90363088 2.82599965 169.25337827 2.84178162 171.60319519 C2.84823417 172.91859378 2.85468672 174.23399237 2.8613348 175.58925152 C2.98082843 178.52843685 3.31403445 181.14801181 4 184 C2 183 2 183 0.89282513 180.89463425 C-0.19244083 177.3760863 -0.26583515 174.37046881 -0.28520203 170.68585205 C-0.29169999 169.95949672 -0.29819796 169.2331414 -0.30489284 168.4847753 C-0.3242038 166.05654556 -0.32944748 163.62849308 -0.3347168 161.20019531 C-0.34565427 159.45725471 -0.3574452 157.71431929 -0.37002563 155.97138977 C-0.40160387 151.24244758 -0.42086324 146.51352744 -0.43764853 141.78451252 C-0.45699887 136.84017252 -0.48672415 131.89589409 -0.51509094 126.95159912 C-0.56114412 118.65281377 -0.59954824 110.35402076 -0.63305664 102.05517578 C-0.67190783 92.44781783 -0.7211829 82.84055838 -0.77638692 73.23328137 C-0.82933599 64.00100954 -0.8765526 54.76871835 -0.92057228 45.53639984 C-0.93933872 41.60178378 -0.95984288 37.66718235 -0.98166466 33.73258209 C-1.00694672 29.10663194 -1.02713358 24.48068701 -1.043293 19.85469627 C-1.05002599 18.15224373 -1.05848455 16.44979706 -1.06874657 14.74736214 C-1.0823963 12.43363535 -1.08990761 10.11997107 -1.0957489 7.80621338 C-1.1014474 6.5083704 -1.1071459 5.21052742 -1.11301708 3.87335587 C-1 1 -1 1 0 0 Z " fill="#808080" transform="translate(287,244)" />
<path d="M0 0 C0.66 0 1.32 0 2 0 C3.17121686 3.51365057 3.11229226 6.24350574 3.0957489 9.95301819 C3.09393091 10.66470844 3.09211291 11.3763987 3.09023982 12.10965532 C3.08284466 14.50031337 3.06815165 16.89087056 3.0534668 19.28149414 C3.04659839 20.99295393 3.04014894 22.70441545 3.03408813 24.4158783 C3.01614996 29.06861165 2.99159405 33.72128777 2.96532798 38.37398076 C2.94386016 42.25353173 2.92519066 46.13309433 2.90639621 50.01265901 C2.86186814 59.16089512 2.8115676 68.30908782 2.75805664 77.45727539 C2.70290938 86.90770443 2.65893846 96.35814078 2.62020558 105.80865008 C2.58651421 113.91317685 2.54519996 122.0176412 2.49788028 130.12209982 C2.46971729 134.96677506 2.44466625 139.81141837 2.4272213 144.6561451 C2.41055407 149.20911687 2.38443512 153.76193571 2.35091019 158.31481361 C2.34020495 159.98940447 2.33292377 161.66402109 2.32924461 163.33864212 C2.32371338 165.61725363 2.30605133 167.89545034 2.28520203 170.17396545 C2.27837245 171.45136125 2.27154287 172.72875704 2.26450634 174.04486179 C2 177 2 177 0 179 C0 119.93 0 60.86 0 0 Z " fill="#808080" transform="translate(364,244)" />
<path d="M0 0 C2.475 0.495 2.475 0.495 5 1 C5.33 89.77 5.66 178.54 6 270 C5.01 270 4.02 270 3 270 C2.67 268.68 2.34 267.36 2 266 C2.33 266 2.66 266 3 266 C3.33 178.88 3.66 91.76 4 2 C2.68 1.34 1.36 0.68 0 0 Z " fill="#808080" transform="translate(308,200)" />
<path d="M0 0 C0.66 0 1.32 0 2 0 C2.33820166 1.5823006 2.67035939 3.16589375 3 4.75 C3.185625 5.63171875 3.37125 6.5134375 3.5625 7.421875 C4 10 4 10 4 14 C3.34 14 2.68 14 2 14 C1.34 11.03 0.68 8.06 0 5 C-0.99 5.99 -1.98 6.98 -3 8 C-3.66 8 -4.32 8 -5 8 C-3.63055898 5.05043472 -2.12169591 2.47531189 0 0 Z " fill="#808080" transform="translate(281,160)" />
<path d="M0 0 C1.12377697 3.30435084 0.89554742 5.0506862 -0.4375 8.25 C-0.72496094 8.95640625 -1.01242188 9.6628125 -1.30859375 10.390625 C-1.53675781 10.92171875 -1.76492187 11.4528125 -2 12 C-1.01 11.67 -0.02 11.34 1 11 C0.34 12.32 -0.32 13.64 -1 15 C-1.99 15 -2.98 15 -4 15 C-5 13 -5 13 -4.00390625 9.9609375 C-3.52824219 8.77757812 -3.05257812 7.59421875 -2.5625 6.375 C-2.08941406 5.18648438 -1.61632812 3.99796875 -1.12890625 2.7734375 C-0.75636719 1.85820312 -0.38382813 0.94296875 0 0 Z " fill="#808080" transform="translate(250,285)" />
<path d="M0 0 C1.875 0.3125 1.875 0.3125 4 1 C4.66 1.99 5.32 2.98 6 4 C5.34 4 4.68 4 4 4 C4.33 5.32 4.66 6.64 5 8 C2.20127563 5.47211993 0.54226981 3.79588866 0 0 Z " fill="#808080" transform="translate(272,2)" />
<path d="M0 0 C1.65 0 3.3 0 5 0 C5 0.33 5 0.66 5 1 C3.35 1 1.7 1 0 1 C0 0.67 0 0.34 0 0 Z " fill="#808080" transform="translate(271,0)" />
<path d="M0 0 C4 1 4 1 4 1 Z " fill="#808080" transform="translate(378,0)" />
</g></svg>