<?xml version="1.0" encoding="UTF-8"?>
<svg version="1.1" xmlns="http://www.w3.org/2000/svg" width="340" height="270" viewBox="0 0 340 270">
  <path d="M0 0 C4.29454725 0.16205839 6.34643898 0.34643898 9.4375 3.4375 C11 6 11 6 11 8 C12.65 8 14.3 8 16 8 C15.9175 8.78375 15.835 9.5675 15.75 10.375 C15.9880991 13.82743699 16.54878143 15.48927082 17.9375 18.5625 C20.16104185 23.72735861 20.5168684 28.4404727 20.78515625 34.015625 C20.96614052 36.52966103 21.29868932 38.55651774 22.0625 40.9375 C23.24188953 44.79017246 23.84613845 48.3077231 22 52 C21.90144883 54.44928655 21.86099417 56.86381376 21.875 59.3125 C21.87242187 60.62863281 21.86984375 61.94476563 21.8671875 63.30078125 C21.97844582 66.39965259 22.38002756 68.98804435 23 72 C23.19839632 74.79408147 23.36797432 77.57801151 23.5 80.375 C23.7514192 85.64549143 24.17454921 90.78590251 25 96 C26.485 96.495 26.485 96.495 28 97 C28.69658363 98.65438613 29.36096883 100.32254318 30 102 C30.515625 102.515625 31.03125 103.03125 31.5625 103.5625 C33 105 33 105 34 109 C40.27 109.33 46.54 109.66 53 110 C53 111.65 53 113.3 53 115 C53.99 114.67 54.98 114.34 56 114 C55.9175 113.154375 55.835 112.30875 55.75 111.4375 C56.07537023 106.96365938 57.59932129 104.75106048 60 101 C61.93559313 100.86495862 63.873872 100.76798871 65.8125 100.6875 C66.89144531 100.62949219 67.97039062 100.57148437 69.08203125 100.51171875 C72 101 72 101 73.83984375 103.0390625 C75.26220674 106.66920105 75.55184091 109.79672255 75.75 113.6875 C75.81380859 114.70166992 75.81380859 114.70166992 75.87890625 115.73632812 C76.14603689 120.70792621 76.14603689 120.70792621 75 123 C75.66 123 76.32 123 77 123 C77.0272415 124.41655793 77.04650467 125.83327045 77.0625 127.25 C77.07410156 128.03890625 77.08570313 128.8278125 77.09765625 129.640625 C77.00277951 131.93284713 76.55422326 133.78310696 76 136 C75.80325972 138.16414313 75.6392679 140.33139984 75.5 142.5 C75.26169355 146.21077187 74.90594361 149.37622557 74 153 C68.39 153 62.78 153 57 153 C56.67 148.71 56.34 144.42 56 140 C53.69 139.34 51.38 138.68 49 138 C48.67 138.66 48.34 139.32 48 140 C49.65 140 51.3 140 53 140 C53 140.99 53 141.98 53 143 C52.40461426 143.20157715 51.80922852 143.4031543 51.19580078 143.61083984 C48.50343093 144.52617199 45.81422282 145.45046501 43.125 146.375 C42.18785156 146.69210938 41.25070313 147.00921875 40.28515625 147.3359375 C39.38925781 147.6453125 38.49335938 147.9546875 37.5703125 148.2734375 C36.74289551 148.55622559 35.91547852 148.83901367 35.06298828 149.13037109 C32.82945622 149.91926728 32.82945622 149.91926728 31 152 C30.01 152 29.02 152 28 152 C28 153.32 28 154.64 28 156 C29.98 156 31.96 156 34 156 C34 161.61 34 167.22 34 173 C33.34 173 32.68 173 32 173 C32 173.99 32 174.98 32 176 C31.030625 175.979375 30.06125 175.95875 29.0625 175.9375 C26.12534105 175.64381501 26.12534105 175.64381501 25 177 C24.63239269 179.32817964 24.29758419 181.6618385 24 184 C24.66 184 25.32 184 26 184 C29.49535741 189.61503199 28.6251681 196.66622624 28 203 C27.0029778 205.999011 25.73692546 208.71476023 24.37109375 211.5625 C21.69245266 218.27818136 20.74384887 225.49436002 19.45556641 232.58349609 C17.48686344 243.02627311 17.48686344 243.02627311 16 246 C14.68 245.67 13.36 245.34 12 245 C12.99 240.71 13.98 236.42 15 232 C11.29551776 235.49412508 11.29551776 235.49412508 8.6875 239.8125 C7 242 7 242 5.0390625 242.3125 C3.02334834 242.3125 1.00897668 242.16467022 -1 242 C-1.99 239.525 -1.99 239.525 -3 237 C-3.66 237 -4.32 237 -5 237 C-5 236.01 -5 235.02 -5 234 C-5.66 234 -6.32 234 -7 234 C-7 233.34 -7 232.68 -7 232 C-7.66 232 -8.32 232 -9 232 C-8.01 236.29 -7.02 240.58 -6 245 C-7.65 245.33 -9.3 245.66 -11 246 C-13.25279563 235.0312912 -15.46117491 224.09573878 -17 213 C-17.66 213 -18.32 213 -19 213 C-19 211.68 -19 210.36 -19 209 C-19.66 209 -20.32 209 -21 209 C-21.8866597 204.41774265 -22.16412757 200.04013755 -22.1875 195.375 C-22.20167969 194.08335937 -22.21585938 192.79171875 -22.23046875 191.4609375 C-22.01978565 188.29712011 -21.68453393 186.62334533 -20 184 C-19.34 184 -18.68 184 -18 184 C-18.99 181.36 -19.98 178.72 -21 176 C-22.65 176 -24.3 176 -26 176 C-26 175.01 -26 174.02 -26 173 C-26.66 173 -27.32 173 -28 173 C-28 167.39 -28 161.78 -28 156 C-26.35 156 -24.7 156 -23 156 C-23 154.68 -23 153.36 -23 152 C-27.88947495 149.99561897 -32.85232522 148.19484041 -37.8125 146.375 C-38.69615234 146.05015625 -39.57980469 145.7253125 -40.49023438 145.390625 C-42.65992467 144.59311722 -44.82985222 143.79626188 -47 143 C-47 142.01 -47 141.02 -47 140 C-45.35 140 -43.7 140 -42 140 C-42 138.35 -42 136.7 -42 135 C-42.66 135 -43.32 135 -44 135 C-43.67 135.99 -43.34 136.98 -43 138 C-44.134375 138.309375 -45.26875 138.61875 -46.4375 138.9375 C-49.78775099 139.62924531 -49.78775099 139.62924531 -51 141 C-51.23427778 143.01594582 -51.41336124 145.038474 -51.5625 147.0625 C-51.706875 149.021875 -51.85125 150.98125 -52 153 C-57.28 153 -62.56 153 -68 153 C-69.13468583 149.5959425 -69.28958323 146.6433425 -69.5 143.0625 C-69.7262277 139.2206689 -70.05303225 135.71743539 -71 132 C-71.06548492 130.41788427 -71.08578381 128.83329919 -71.0625 127.25 C-71.05347656 126.45078125 -71.04445313 125.6515625 -71.03515625 124.828125 C-71.02355469 124.22484375 -71.01195313 123.6215625 -71 123 C-70.34 123 -69.68 123 -69 123 C-69.33 122.34 -69.66 121.68 -70 121 C-69.98836789 118.35369475 -69.90408063 115.76304718 -69.75 113.125 C-69.72292969 112.40441406 -69.69585937 111.68382813 -69.66796875 110.94140625 C-69.49197545 107.85868487 -69.14823959 105.3184406 -67.83984375 102.5078125 C-65.16731001 100.31758315 -63.21155801 100.60380396 -59.8125 100.75 C-58.72582031 100.78609375 -57.63914062 100.8221875 -56.51953125 100.859375 C-55.68808594 100.90578125 -54.85664062 100.9521875 -54 101 C-51.59079859 105.21610247 -50.55749198 108.13241177 -51 113 C-51.33 113.66 -51.66 114.32 -52 115 C-50.35 115 -48.7 115 -47 115 C-47 113.35 -47 111.7 -47 110 C-40.73 110 -34.46 110 -28 110 C-27.67 108.02 -27.34 106.04 -27 104 C-25.71182656 102.62298702 -24.37195574 101.29355827 -23 100 C-18.69988264 93.95703205 -18.22275189 88.60945222 -17.8125 81.3125 C-17.67577604 79.26675173 -17.5365536 77.22116852 -17.39453125 75.17578125 C-17.34143799 74.27770752 -17.28834473 73.37963379 -17.23364258 72.4543457 C-17.0188098 70.19759136 -16.5607603 68.18897498 -16 66 C-15.90681264 63.62646314 -15.870041 61.25036029 -15.875 58.875 C-15.87242187 57.63492188 -15.86984375 56.39484375 -15.8671875 55.1171875 C-15.78331189 52.09276427 -15.78331189 52.09276427 -17 50 C-16.93460903 47.74652656 -16.63325334 45.54353423 -16.3671875 43.3046875 C-16.08705053 40.78345475 -15.87121513 38.28655289 -15.6953125 35.7578125 C-14.59966333 21.61850527 -10.26152376 10.26152376 0 0 Z" fill="#D3D3D3" transform="translate(168,12)"/>
</svg>
